<svg xmlns="http://www.w3.org/2000/svg" xmlns:xlink="http://www.w3.org/1999/xlink" version="1.1" x="0px" y="0px" viewBox="0 0 100 100" enable-background="new 0 0 100 100" xml:space="preserve"><g><path d="M77.841,37.214C84.338,34.568,93.314,41.689,99,48.209c-3.07-9.086-9.84-17.236-19.585-22.296    c-9.74-5.061-20.613-6.069-30.312-3.613c-1.845,0.468-3.663,1.017-5.432,1.664c-0.349,0.072-0.696,0.127-1.043,0.214    c-2.176,0.187-4.249-0.133-5.566-3.056C34.279,14.945,41.768,6.409,48.624,1c-9.555,2.92-18.128,9.359-23.445,18.625    c-5.321,9.266-6.383,19.602-3.799,28.825c0.938,3.348,2.193,6.6,3.902,9.604c0.035,0.131,0.055,0.264,0.09,0.396    c0.196,2.066-0.14,4.04-3.212,5.292C15.663,66.388,6.688,59.267,1,52.746c3.07,9.085,9.841,17.236,19.583,22.294    c9.746,5.062,20.615,6.072,30.315,3.615c2.2-0.559,4.362-1.234,6.447-2.055c0.425-0.086,0.847-0.16,1.27-0.268    c2.166-0.205,4.228,0.088,5.508,2.924C66.82,85.256,59.272,93.655,52.389,99c9.545-2.944,18.148-9.311,23.545-18.401    c5.402-9.091,6.573-19.184,4.104-28.154c-1.163-4.214-5.189-8.918-5.189-10.838C74.848,40.646,75.728,38.074,77.841,37.214z     M59.244,57.87c-3.062,1.59-6.478,1.906-9.525,1.135c-0.692-0.176-1.372-0.387-2.027-0.645c-0.132-0.027-0.265-0.051-0.398-0.084    c-0.681-0.066-1.328,0.025-1.73,0.919c-0.85,1.883,1.524,4.524,3.688,6.202c-2.999-0.924-5.703-2.925-7.399-5.781    c-1.696-2.858-2.065-6.027-1.289-8.848c0.365-1.325,1.63-2.802,1.63-3.407c0-0.301-0.276-1.11-0.939-1.38    c-2.041-0.832-4.862,1.406-6.649,3.456c0.964-2.855,3.093-5.417,6.153-7.006c3.062-1.591,6.479-1.908,9.526-1.135    c0.581,0.146,1.152,0.319,1.707,0.522c0.109,0.023,0.22,0.04,0.329,0.067c0.682,0.059,1.333-0.042,1.747-0.959    c0.875-1.942-1.479-4.625-3.632-6.324c3.001,0.917,5.695,2.94,7.369,5.852c1.671,2.913,2.003,6.161,1.192,9.059    c-0.295,1.052-0.69,2.075-1.229,3.019c-0.008,0.04-0.014,0.082-0.025,0.123c-0.062,0.649,0.045,1.27,1.008,1.664    c2.043,0.83,4.865-1.407,6.651-3.455C64.433,53.719,62.306,56.278,59.244,57.87z"></path></g></svg>