<svg xmlns="http://www.w3.org/2000/svg" xmlns:xlink="http://www.w3.org/1999/xlink" version="1.1" x="0px" y="0px" viewBox="0 0 100 100" enable-background="new 0 0 100 100" xml:space="preserve"><rect y="94.444" width="100" height="5.556"></rect><path d="M8.333,75H2.778C1.245,75,0,76.242,0,77.778l0,11.111h11.111l0-11.111C11.111,76.242,9.867,75,8.333,75z"></path><path d="M30.555,58.333H25c-1.534,0-2.778,1.242-2.778,2.778l0,27.777h11.111l-0.001-27.777  C33.333,59.576,32.088,58.333,30.555,58.333z"></path><path d="M52.778,63.889h-5.556c-1.533,0-2.778,1.243-2.778,2.778l0.001,22.222h11.111l0-22.222  C55.556,65.131,54.311,63.889,52.778,63.889z"></path><path d="M75,43.056h-5.556c-1.533,0-2.778,1.242-2.778,2.778l0.001,43.055h11.111l0-43.055C77.778,44.298,76.533,43.056,75,43.056z"></path><path d="M97.222,9.722h-5.556c-1.533,0-2.778,1.243-2.778,2.778l0,76.389H100l0-76.389C100,10.965,98.755,9.722,97.222,9.722z"></path><path d="M42.361,13.889c-0.758,0-1.475,0.155-2.147,0.402c-0.488-4.137-4.002-7.346-8.27-7.346c-1.073,0-2.095,0.209-3.037,0.579  C27.91,3.214,24.056,0,19.444,0c-5.368,0-9.722,4.351-9.722,9.722c0,0.59,0.061,1.164,0.162,1.725  c-0.71-0.217-1.464-0.336-2.246-0.336C3.421,11.111,0,14.53,0,18.75s3.421,7.639,7.639,7.639h34.723c3.451,0,6.25-2.799,6.25-6.25  C48.611,16.686,45.812,13.889,42.361,13.889z"></path><path d="M29.167,46.528c0,1.918-1.554,3.472-3.472,3.472s-3.472-1.554-3.472-3.472s3.472-7.636,3.472-7.636  S29.167,44.61,29.167,46.528z"></path><path d="M18.056,38.193c0,1.918-1.555,3.473-3.472,3.473c-1.918,0-3.472-1.555-3.472-3.473c0-1.917,3.472-7.637,3.472-7.637  S18.056,36.275,18.056,38.193z"></path><path d="M38.889,35.416c0,1.917-1.554,3.472-3.472,3.472c-1.917,0-3.472-1.555-3.472-3.472c0-1.918,3.472-7.638,3.472-7.638  S38.889,33.498,38.889,35.416z"></path></svg>