<svg xmlns="http://www.w3.org/2000/svg" xmlns:xlink="http://www.w3.org/1999/xlink" version="1.1" x="0px" y="0px" viewBox="0 0 48 60" style="enable-background:new 0 0 48 48;" xml:space="preserve"><path d="M24,4c-0.6,0-1,0.4-1,1v26.1c-2.8,0.5-5,2.9-5,5.9c0,3.3,2.7,6,6,6s6-2.7,6-6c0-3-2.2-5.4-5-5.9V5C25,4.4,24.6,4,24,4z   M28,37c0,2.2-1.8,4-4,4c-2.2,0-4-1.8-4-4s1.8-4,4-4C26.2,33,28,34.8,28,37z M35,37c0,6.1-4.9,11-11,11s-11-4.9-11-11  c0-4.1,2.3-7.9,6-9.8V5c0-1.3,0.5-2.6,1.5-3.5C21.4,0.5,22.7,0,24,0c1.3,0,2.6,0.5,3.5,1.5C28.5,2.4,29,3.7,29,5h-2  c0-0.8-0.3-1.6-0.9-2.1c-1.1-1.1-3.1-1.1-4.2,0C21.3,3.4,21,4.2,21,5v22.8c0,0.4-0.2,0.8-0.6,0.9C17.1,30.2,15,33.4,15,37  c0,5,4,9,9,9c5,0,9-4,9-9c0-3.5-2-6.5-5.2-8H27v-2h1c0.1,0,0.3,0,0.4,0.1C32.5,28.9,35,32.7,35,37z M29,9h-2V7h2V9z M29,13h-2v-2h2  V13z M29,17h-2v-2h2V17z M29,21h-2v-2h2V21z M27,23h2v2h-2V23z M2.4,19.8C1.7,19.3,0.9,19,0,19l0-2c1.4,0,2.6,0.4,3.6,1.2  c1.3,1,3.5,1,4.7,0c1-0.8,2.3-1.2,3.6-1.2c1.4,0,2.6,0.4,3.6,1.2l-1.3,1.6c-1.2-1-3.5-1-4.7,0C8.6,20.6,7.3,21,6,21  C4.7,21,3.4,20.6,2.4,19.8z M14.4,24.8c-1.2-1-3.5-1-4.7,0C8.6,25.6,7.3,26,6,26c-1.3,0-2.6-0.4-3.6-1.2C1.7,24.3,0.9,24,0,24l0-2  c1.4,0,2.6,0.4,3.6,1.2c1.3,1,3.5,1,4.7,0c1-0.8,2.3-1.2,3.6-1.2c1.4,0,2.6,0.4,3.6,1.2L14.4,24.8z M2.4,14.8C1.7,14.3,0.9,14,0,14  l0-2c1.4,0,2.6,0.4,3.6,1.2c1.3,1,3.5,1,4.7,0c1-0.8,2.3-1.2,3.6-1.2c1.4,0,2.6,0.4,3.6,1.2l-1.3,1.6c-1.2-1-3.5-1-4.7,0  C8.6,15.6,7.3,16,6,16C4.7,16,3.4,15.6,2.4,14.8z M48,17l0,2c-0.9,0-1.8,0.3-2.4,0.8c-1,0.8-2.3,1.2-3.6,1.2s-2.6-0.4-3.6-1.2  c-1.3-1-3.5-1-4.7,0l-1.3-1.6c1-0.8,2.3-1.2,3.6-1.2c1.4,0,2.6,0.4,3.6,1.2c1.3,1,3.5,1,4.7,0C45.4,17.4,46.6,17,48,17z M33.6,14.8  l-1.3-1.6c1-0.8,2.3-1.2,3.6-1.2c1.4,0,2.6,0.4,3.6,1.2c1.3,1,3.5,1,4.7,0c1-0.8,2.3-1.2,3.6-1.2l0,2c-0.9,0-1.8,0.3-2.4,0.8  c-1,0.8-2.3,1.2-3.6,1.2s-2.6-0.4-3.6-1.2C37.1,13.8,34.9,13.8,33.6,14.8z M48,22l0,2c-0.9,0-1.8,0.3-2.4,0.8  c-1,0.8-2.3,1.2-3.6,1.2s-2.6-0.4-3.6-1.2c-1.3-1-3.5-1-4.7,0l-1.3-1.6c1-0.8,2.3-1.2,3.6-1.2c1.4,0,2.6,0.4,3.6,1.2  c1.3,1,3.5,1,4.7,0C45.4,22.4,46.6,22,48,22z"/><text x="0" y="63" fill="#000000" font-size="5px" font-weight="bold" font-family="'Helvetica Neue', Helvetica, Arial-Unicode, Arial, Sans-serif">Created by Maxim Basinski</text><text x="0" y="68" fill="#000000" font-size="5px" font-weight="bold" font-family="'Helvetica Neue', Helvetica, Arial-Unicode, Arial, Sans-serif">from the Noun Project</text></svg>