<svg xmlns="http://www.w3.org/2000/svg" xmlns:xlink="http://www.w3.org/1999/xlink" version="1.1" x="0px" y="0px" viewBox="0 0 100 125" enable-background="new 0 0 100 100" xml:space="preserve"><g><path d="M76.047,48.75c-4.752,0-7.239,1.71-9.435,3.22c-2.079,1.43-4.044,2.78-8.019,2.78s-5.938-1.351-8.017-2.78   c-2.195-1.509-4.683-3.22-9.434-3.22c-4.75,0-7.238,1.71-9.433,3.22c-2.079,1.43-4.042,2.78-8.017,2.78   c-3.973,0-5.936-1.351-8.014-2.78c-2.194-1.509-4.681-3.22-9.43-3.22v2.5c3.972,0,5.935,1.351,8.013,2.78   c2.194,1.509,4.681,3.22,9.431,3.22c4.751,0,7.239-1.711,9.434-3.22c2.079-1.43,4.042-2.78,8.016-2.78s5.938,1.351,8.017,2.78   c2.195,1.509,4.683,3.22,9.434,3.22c4.752,0,7.239-1.711,9.435-3.22c2.079-1.43,4.044-2.78,8.019-2.78s5.939,1.351,8.019,2.78   c2.195,1.509,4.683,3.22,9.435,3.22v-2.5c-3.975,0-5.939-1.351-8.019-2.78C83.286,50.46,80.799,48.75,76.047,48.75z"/><path d="M76.047,58c-4.752,0-7.239,1.711-9.435,3.22c-2.079,1.43-4.044,2.78-8.019,2.78s-5.938-1.351-8.017-2.78   C48.382,59.711,45.895,58,41.144,58c-4.75,0-7.238,1.711-9.433,3.22c-2.079,1.43-4.042,2.78-8.017,2.78   c-3.973,0-5.936-1.351-8.014-2.78C13.486,59.711,10.999,58,6.25,58v2.5c3.972,0,5.935,1.351,8.013,2.78   c2.194,1.509,4.681,3.22,9.431,3.22c4.751,0,7.239-1.711,9.434-3.22c2.079-1.43,4.042-2.78,8.016-2.78s5.938,1.351,8.017,2.78   c2.195,1.509,4.683,3.22,9.434,3.22c4.752,0,7.239-1.711,9.435-3.22c2.079-1.43,4.044-2.78,8.019-2.78s5.939,1.351,8.019,2.78   c2.195,1.509,4.683,3.22,9.435,3.22V64c-3.975,0-5.939-1.351-8.019-2.78C83.286,59.711,80.799,58,76.047,58z"/><path d="M76.047,67c-4.752,0-7.239,1.711-9.435,3.22c-2.079,1.43-4.044,2.78-8.019,2.78s-5.938-1.351-8.017-2.78   C48.382,68.711,45.895,67,41.144,67c-4.75,0-7.238,1.711-9.433,3.22c-2.079,1.43-4.042,2.78-8.017,2.78   c-3.973,0-5.936-1.351-8.014-2.78C13.486,68.711,10.999,67,6.25,67v2.5c3.972,0,5.935,1.351,8.013,2.78   c2.194,1.509,4.681,3.22,9.431,3.22c4.751,0,7.239-1.711,9.434-3.22c2.079-1.43,4.042-2.78,8.016-2.78s5.938,1.351,8.017,2.78   c2.195,1.509,4.683,3.22,9.434,3.22c4.752,0,7.239-1.711,9.435-3.22c2.079-1.43,4.044-2.78,8.019-2.78s5.939,1.351,8.019,2.78   c2.195,1.509,4.683,3.22,9.435,3.22V73c-3.975,0-5.939-1.351-8.019-2.78C83.286,68.711,80.799,67,76.047,67z"/><path d="M76.047,76.25c-4.752,0-7.239,1.711-9.435,3.22c-2.079,1.43-4.044,2.78-8.019,2.78s-5.938-1.351-8.017-2.78   c-2.195-1.509-4.683-3.22-9.434-3.22c-4.75,0-7.238,1.711-9.433,3.22c-2.079,1.43-4.042,2.78-8.017,2.78   c-3.973,0-5.936-1.351-8.014-2.78c-2.194-1.509-4.681-3.22-9.43-3.22v2.5c3.972,0,5.935,1.351,8.013,2.78   c2.194,1.509,4.681,3.22,9.431,3.22c4.751,0,7.239-1.711,9.434-3.22c2.079-1.43,4.042-2.78,8.016-2.78s5.938,1.351,8.017,2.78   c2.195,1.509,4.683,3.22,9.434,3.22c4.752,0,7.239-1.711,9.435-3.22c2.079-1.43,4.044-2.78,8.019-2.78s5.939,1.351,8.019,2.78   c2.195,1.509,4.683,3.22,9.435,3.22v-2.5c-3.975,0-5.939-1.351-8.019-2.78C83.286,77.961,80.799,76.25,76.047,76.25z"/><path d="M76.047,84.75c-4.752,0-7.239,1.711-9.435,3.22c-2.079,1.43-4.044,2.78-8.019,2.78s-5.938-1.351-8.017-2.78   c-2.195-1.509-4.683-3.22-9.434-3.22c-4.75,0-7.238,1.711-9.433,3.22c-2.079,1.43-4.042,2.78-8.017,2.78   c-3.973,0-5.936-1.351-8.014-2.78c-2.194-1.509-4.681-3.22-9.43-3.22v2.5c3.972,0,5.935,1.351,8.013,2.78   c2.194,1.509,4.681,3.22,9.431,3.22c4.751,0,7.239-1.711,9.434-3.22c2.079-1.43,4.042-2.78,8.016-2.78s5.938,1.351,8.017,2.78   c2.195,1.509,4.683,3.22,9.434,3.22c4.752,0,7.239-1.711,9.435-3.22c2.079-1.43,4.044-2.78,8.019-2.78s5.939,1.351,8.019,2.78   c2.195,1.509,4.683,3.22,9.435,3.22v-2.5c-3.975,0-5.939-1.351-8.019-2.78C83.286,86.461,80.799,84.75,76.047,84.75z"/><polygon points="14.167,42.25 16.667,42.25 16.667,17.417 12.434,17.417 20.75,9.101 28.899,17.25 24.5,17.25 24.5,42.25 27,42.25    27,19.75 34.934,19.75 20.75,5.566 6.399,19.917 14.167,19.917  "/><rect x="14.167" y="44.071" width="2.5" height="3.333"/><rect x="24.485" y="44.071" width="2.5" height="3.333"/><polygon points="43.893,42.25 46.393,42.25 46.393,17.417 42.161,17.417 50.477,9.101 58.625,17.25 54.227,17.25 54.227,42.25    56.727,42.25 56.727,19.75 64.66,19.75 50.477,5.566 36.125,19.917 43.893,19.917  "/><rect x="43.904" y="44.071" width="2.5" height="3.333"/><rect x="54.258" y="44.071" width="2.5" height="3.333"/><polygon points="73.791,42.25 76.291,42.25 76.291,17.417 72.059,17.417 80.375,9.101 88.523,17.25 84.125,17.25 84.125,42.25    86.625,42.25 86.625,19.75 94.559,19.75 80.375,5.566 66.023,19.917 73.791,19.917  "/><rect x="73.783" y="44.071" width="2.5" height="3.333"/><rect x="84.156" y="44.071" width="2.5" height="3.333"/><rect x="19.417" y="21.5" width="2.5" height="16.125"/><rect x="49.143" y="21.5" width="2.5" height="16.125"/><rect x="79.041" y="21.5" width="2.5" height="16.125"/></g><text x="0" y="115" fill="#000000" font-size="5px" font-weight="bold" font-family="'Helvetica Neue', Helvetica, Arial-Unicode, Arial, Sans-serif">Created by Creative Mania</text><text x="0" y="120" fill="#000000" font-size="5px" font-weight="bold" font-family="'Helvetica Neue', Helvetica, Arial-Unicode, Arial, Sans-serif">from the Noun Project</text></svg>