<svg xmlns="http://www.w3.org/2000/svg" xmlns:xlink="http://www.w3.org/1999/xlink" version="1.1" x="0px" y="0px" viewBox="0 0 100 125" enable-background="new 0 0 100 100" xml:space="preserve"><path fill-rule="evenodd" clip-rule="evenodd" d="M2,92.001C8,92.001,8,95,14,95s6-2.999,12-2.999S32,95,38,95s6-2.999,12.001-2.999  C56,92.001,56,95,62,95c6.001,0,6.001-2.999,12.001-2.999C80,92.001,80,95,86.001,95c6,0,6-2.999,11.999-2.999V95  c-5.999,0-5.999,3-11.999,3c-6.001,0-6.001-3-12-3c-6,0-6,3-12.001,3c-6,0-6-3-11.999-3C44,95,44,98,38,98s-6-3-12-3s-6,3-12,3  s-6-3-12-3V92.001L2,92.001z M59.001,8L65,2h3.001l6,6v3v6l0.163,1.959l1.355,16.279l0.327,3.916l2.837,34.042l0.147,1.78  c6.87,1.253,13.331,3.675,19.169,7.053v0.972v3c-5.999,0-5.999,2.999-11.999,2.999c-6.001,0-6.001-2.999-12-2.999  c-6,0-6,2.999-12.001,2.999c-6,0-6-2.999-11.999-2.999C44,86.001,44,89,38,89s-6-2.999-12-2.999S20,89,14,89s-6-2.999-12-2.999v-3  c6,0,6,3,12,3s6-3,12-3c3.808,0,5.198,1.207,7.239,2.09c6.189-4.407,13.252-7.668,20.876-9.475l1.34-16.07l0.385-4.628l1.604-19.239  l0.386-4.629L59.001,17v-6V8L59.001,8z M69.758,8l-3-3h-0.515l-3,3H65h3.001H69.758L69.758,8z M68.001,11v6h3.101v-6H68.001  L68.001,11z M65,17v-6h-3v6H65L65,17z M75.782,74.501l-1.167-13.994L60.678,74.443c2.4-0.292,4.844-0.442,7.323-0.442  C70.638,74.001,73.234,74.171,75.782,74.501L75.782,74.501z M74.289,56.59l-1.221-14.656L58.739,56.261l-1.443,17.323L74.289,56.59  L74.289,56.59z M72.741,38.018l-1.356-16.281L60.728,32.395l-1.603,19.238L72.741,38.018L72.741,38.018z M68.879,20h-7.118  l-0.647,7.766L68.879,20L68.879,20z M94.409,83.479c-7.896-4.136-16.878-6.478-26.408-6.478c-11.316,0-21.862,3.297-30.729,8.983  l-0.165-0.008c0.283,0.016,0.58,0.024,0.894,0.024c6,0,6-3,12.001-3c5.999,0,5.999,3,11.999,3c6.001,0,6.001-3,12.001-3  c5.999,0,5.999,3,12,3C90.485,86.001,91.618,84.325,94.409,83.479L94.409,83.479z M37.024,85.973  c-0.134-0.009-0.267-0.02-0.396-0.03C36.758,85.953,36.89,85.964,37.024,85.973z"/><text x="0" y="115" fill="#000000" font-size="5px" font-weight="bold" font-family="'Helvetica Neue', Helvetica, Arial-Unicode, Arial, Sans-serif">Created by Stanislav Levin</text><text x="0" y="120" fill="#000000" font-size="5px" font-weight="bold" font-family="'Helvetica Neue', Helvetica, Arial-Unicode, Arial, Sans-serif">from the Noun Project</text></svg>