<svg xmlns="http://www.w3.org/2000/svg" xmlns:xlink="http://www.w3.org/1999/xlink" version="1.1" x="0px" y="0px" viewBox="0 0 296.509 310.43375000000003" style="enable-background:new 0 0 296.509 248.347;" xml:space="preserve"><g><path d="M235.803,111.907C235.696,111.934,235.755,111.966,235.803,111.907L235.803,111.907z"/><path d="M235.791,111.601c-0.016-0.044-0.026-0.084-0.055-0.14C235.506,111.006,235.574,111.43,235.791,111.601z"/><path d="M294.303,154.139c-0.492-0.57,0.083-1.068-0.409-1.639c-0.493-0.571-1.03-0.108-1.523-0.679   c-0.493-0.571-0.282-0.754-0.775-1.325c-0.493-0.571,0.042-1.034-0.451-1.604c-0.491-0.568-0.995-0.133-1.486-0.701   c-0.492-0.569-0.607-0.47-1.099-1.039c-0.494-0.572-0.3-0.739-0.794-1.311c-0.493-0.57,0.428-1.366-0.065-1.937   c-0.492-0.57-2.49,1.154-2.982,0.584c-0.495-0.573,1.253-2.082,0.759-2.655c-0.494-0.571-2.147,0.855-2.641,0.284   c-0.494-0.572-0.395-0.658-0.89-1.229c-0.494-0.573-0.652-0.437-1.147-1.01c-0.494-0.572,0.05-1.043-0.444-1.615   c-0.495-0.573-0.1-0.914-0.595-1.488c-0.496-0.574-1.325,0.142-1.821-0.433c-0.496-0.575-0.445-1.18-0.147-1.878   c0.293-0.683,0.74-0.536,1.483-0.536s0.743,1.788,1.485,1.788c0.745,0,0.745-1.11,1.49-1.11c0.744,0,0.744,0.061,1.488,0.061   c0.745,0,0.745,0.079,1.49,0.079c0.746,0,0.746-0.772,1.491-0.772c0.745,0,0.745-0.094,1.489-0.094   c0.746,0,0.746,0.215,1.493,0.215c0.748,0,0.748,0.219,1.496,0.219c0.747,0,2.35,1.305,2.632,0.612   c0.293-0.72-2.365-0.429-2.873-1.017c-0.509-0.589-0.513-0.585-1.021-1.173c-0.507-0.588,0-1.025-0.507-1.613   c-0.509-0.588-0.907-0.243-1.416-0.832c-0.508-0.589,0.057-1.076-0.452-1.665c-0.508-0.588-1.356,0.145-1.864-0.442   c-0.506-0.586,0.689-1.619,0.184-2.205c-0.506-0.587-0.979-0.178-1.486-0.764c-0.509-0.589-0.076-0.963-0.584-1.552   c-0.508-0.588-0.806-0.331-1.313-0.92c-0.508-0.588-1.554,0.315-2.062-0.272c-0.51-0.59,0.648-1.59,0.139-2.179   c-0.509-0.59-0.971-0.19-1.478-0.779c-0.51-0.59,0.084-1.103-0.426-1.691c-0.51-0.591-1.518,0.279-2.027-0.312   c-0.509-0.589-0.215-0.843-0.725-1.432c-0.51-0.591,0.149-1.159-0.361-1.75c-0.511-0.592,0.226-1.228-0.285-1.82   c-0.512-0.592-3.248-0.206-2.905-0.91c0.35-0.719,1.8,0.038,2.6,0.038c0.801,0,0.801,1.023,1.602,1.023   c0.802,0,0.802-0.147,1.603-0.147s0.801-0.239,1.601-0.239c0.802,0,0.802,0.528,1.603,0.528c0.804,0,0.804-2.065,1.607-2.065   c0.804,0,2.451,2.701,2.825,1.99c0.355-0.676-1.748-1.192-2.247-1.771c-0.5-0.579,0.443-1.395-0.057-1.974   c-0.501-0.58-1.504,0.287-2.005-0.293c-0.5-0.578-1.135-0.029-1.635-0.607c-0.5-0.578,0.529-1.467,0.029-2.045   c-0.5-0.579-1.031-0.12-1.531-0.699c-0.5-0.579,0.644-1.567,0.144-2.146c-0.501-0.58-1.268,0.083-1.768-0.497   c-0.5-0.579,0.304-1.273-0.196-1.853s-0.675-0.43-1.175-1.009c-0.501-0.58-0.713-0.397-1.214-0.978   c-0.5-0.579-1.425,0.22-1.926-0.359c-0.498-0.577-0.3-0.748-0.798-1.325c-0.499-0.578,0.343-1.305-0.156-1.883   c-0.501-0.58-0.562-0.528-1.063-1.108c-0.5-0.579-0.116-0.911-0.617-1.49c-0.5-0.579-1.012-0.137-1.512-0.716   c-0.502-0.581-1.286,0.097-1.788-0.484c-0.501-0.58-0.063-0.959-0.564-1.539c-0.501-0.581-0.582-0.512-1.083-1.093   c-0.503-0.582,0.4-1.361-0.103-1.943c-0.501-0.58-2.325,0.995-2.826,0.414c-0.503-0.581-0.044-0.978-0.547-1.56   c-0.503-0.583,0.287-1.266-0.216-1.849c-0.504-0.584-0.636-0.434-1.406-0.438c-0.764-0.004,0.023,0.642-0.476,1.22   c-0.5,0.579-1.545-0.323-2.045,0.256c-0.501,0.579,0.592,1.523,0.091,2.103c-0.499,0.579,0.046,1.051-0.454,1.629   c-0.499,0.578-1.738-0.492-2.237,0.086c-0.5,0.579-1.372-0.175-1.872,0.403c-0.501,0.58,0.64,1.564,0.139,2.145   c-0.501,0.579-1.148,0.02-1.649,0.6c-0.5,0.579-0.715,0.393-1.215,0.972c-0.501,0.58,0.694,1.612,0.193,2.191   c-0.5,0.58-1.744-0.494-2.244,0.086c-0.501,0.579-0.132,0.897-0.633,1.477c-0.498,0.578-0.598,0.491-1.097,1.068   c-0.499,0.578-0.679,0.422-1.178,0.999c-0.502,0.581-0.312,0.745-0.814,1.326c-0.5,0.579-0.026,0.987-0.526,1.566   c-0.5,0.579-0.676,0.427-1.177,1.006c-0.501,0.581,0.388,1.35-0.114,1.931c-0.501,0.58-0.416,0.653-0.917,1.233   c-0.502,0.581-2.161-0.853-2.663-0.271c-0.503,0.582-0.394,0.675-0.896,1.257c-0.502,0.58,0.837,1.736,0.335,2.317   c-0.502,0.581-0.804,0.321-1.306,0.903c-0.504,0.583-0.073,0.954-0.577,1.537c-0.17,0.196-0.315,0.17-0.426,0.083   c0.059,0.167,0.046,0.264,0.012,0.306c0.054-0.014,0.141-0.027,0.308-0.027c0.801,0,0.801,1.605,1.602,1.605   c0.802,0,0.802-1.296,1.603-1.296c0.801,0,0.801,0.899,1.6,0.899c0.802,0,0.802-0.719,1.604-0.719c0.804,0,0.804-1.544,1.607-1.544   c0.804,0,1.89,0.217,2.249,0.935c0.349,0.695-0.243,1.694-0.752,2.282c-0.508,0.589-1.465-0.238-1.973,0.351   c-0.508,0.587-0.356,0.718-0.863,1.306c-0.509,0.588-1.539-0.302-2.047,0.287c-0.509,0.589,0.87,1.778,0.361,2.367   c-0.508,0.588-0.563,0.541-1.07,1.129c-0.506,0.586-1.042,0.122-1.548,0.708c-0.507,0.587-1.152,0.029-1.658,0.616   c-0.509,0.589,0.193,1.195-0.315,1.784c-0.508,0.588-0.064,0.971-0.572,1.559c-0.508,0.588-0.481,0.611-0.989,1.199   c-0.509,0.59-1.046,0.127-1.556,0.716c-0.509,0.59,0.054,1.075-0.455,1.664c-0.509,0.59-1.107,0.072-1.617,0.661   c-0.51,0.591-1.205-0.009-1.715,0.581c-0.509,0.59-0.241,0.82-0.75,1.41c-0.51,0.591,0.622,1.568,0.112,2.159   c-0.114,0.132-0.212,0.223-0.303,0.295c-0.347-0.345-0.628-0.186-0.988-0.63c-0.393-0.485-0.249-0.601-0.642-1.086   c-0.394-0.485,0.423-1.147,0.029-1.633c-0.394-0.485-0.26-0.593-0.653-1.079c-0.392-0.484-0.141-0.689-0.533-1.174   c-0.394-0.485-0.14-0.692-0.533-1.178c-0.394-0.485-1.23,0.193-1.623-0.292c-0.393-0.484-0.403-0.476-0.796-0.96   c-0.392-0.483,0.163-0.933-0.229-1.416c-0.393-0.484-0.25-0.6-0.643-1.084c-0.395-0.486-2.045,0.852-2.44,0.365   c-0.392-0.485-0.781-0.17-1.175-0.655c-0.394-0.485,0.843-1.486,0.449-1.972c-0.394-0.487-0.11-0.718-0.505-1.204   c-0.395-0.486-0.066-0.752-0.461-1.238c-0.395-0.486-1.025,0.025-1.42-0.46c-0.393-0.485-0.514-0.388-0.906-0.872   c-0.396-0.487,0.159-0.938-0.235-1.425c-0.395-0.488-2.114,0.904-2.51,0.416c-0.396-0.489-0.611-0.314-1.008-0.804   c-0.35-0.431,1.075-0.854,1.587-1.345c0.036,0.019,0.086,0.031,0.159,0.031c0.603,0,0.603-0.165,1.206-0.165   c0.605,0,0.605-0.643,1.209-0.643c0.602,0,0.602-0.143,1.202-0.143c0.605,0,0.605-1.213,1.208-1.213s0.604,1.287,1.206,1.287   c0.602,0,0.602-0.041,1.205-0.041c0.605,0,0.605,0.98,1.21,0.98c0.604,0,0.604,0.704,1.207,0.704c0.604,0,0.604-1.554,1.209-1.554   c0.605,0,0.605,1.383,1.211,1.383c0.605,0,0.605-1.403,1.209-1.403c0.605,0,0.605-1.424,1.211-1.424c0.044,0,0.078,0,0.116,0.001   c-0.091-0.563,1.345-1.79,0.983-2.235c-0.391-0.482-2.156,0.948-2.547,0.466c-0.39-0.481,1.708-2.182,1.318-2.663   c-0.392-0.482-0.862-0.102-1.253-0.584c-0.392-0.482,0.057-0.846-0.335-1.328c-0.392-0.484-2.738,1.418-3.13,0.935   c-0.392-0.482,1.63-2.12,1.238-2.604c-0.391-0.482-1.979,0.804-2.37,0.32c-0.391-0.482,0.436-1.153,0.046-1.636   c-0.392-0.483-0.607-0.309-0.999-0.792c-0.392-0.484,0.856-1.496,0.465-1.98c-0.392-0.482-2.773,1.448-3.165,0.965   c-0.392-0.483,0.219-0.979-0.173-1.462c-0.392-0.483,0.374-1.104-0.018-1.587c-0.391-0.482-0.424-0.455-0.814-0.938   c-0.391-0.481,0.6-1.284,0.21-1.766c-0.391-0.482-1.066,0.065-1.457-0.416c-0.393-0.484-1.526,0.435-1.919-0.05   c-0.392-0.483-0.156-0.675-0.548-1.158s0.829-1.472,0.438-1.955c-0.394-0.485-1.657,0.539-2.05,0.054   c-0.393-0.484,1.188-1.764,0.795-2.248c-0.393-0.485-2.364,1.112-2.758,0.628c-0.391-0.482,0.543-1.239,0.151-1.722   c-0.393-0.485,0.91-1.541,0.517-2.026c-0.394-0.486-3.271,1.846-3.666,1.358c-0.395-0.486,0.307-1.055-0.088-1.542   c-0.396-0.487,0.372-0.668,0.635-1.237c0.26-0.563-0.082-1.934,0.538-1.934c0.618,0,0.618,1.478,1.237,1.478   c0.618,0,0.618-0.567,1.236-0.567c0.621,0,0.621,1.788,1.241,1.788c0.619,0,0.619-0.059,1.238-0.059c0.62,0,0.62-2.67,1.241-2.67   c0.621,0,0.621,1.286,1.241,1.286c0.62,0,0.62,1.004,1.24,1.004c0.621,0,0.621-1.007,1.242-1.007c0.623,0,0.623,2.104,1.246,2.104   c0.622,0,1.104-1.123,1.375-1.683c0.271-0.558-1.141-0.041-1.53-0.522c-0.389-0.479-0.678-0.245-1.067-0.726   c-0.389-0.479,0.701-1.363,0.313-1.843c-0.389-0.479-0.831-0.121-1.22-0.601s0.163-0.927-0.226-1.406   c-0.389-0.479-1.721,0.6-2.109,0.12c-0.39-0.48,1.368-1.903,0.98-2.384c-0.39-0.48-0.911-0.059-1.3-0.539   c-0.391-0.481-1.672,0.557-2.061,0.075c-0.391-0.482,1.174-1.75,0.783-2.232c-0.391-0.481-1.339,0.287-1.73-0.194   c-0.39-0.481-0.688-0.238-1.078-0.72c-0.39-0.48,1.76-2.223,1.37-2.703c-0.39-0.48-1.193,0.171-1.583-0.31   c-0.39-0.481-0.79-0.156-1.18-0.638c-0.391-0.481-0.184-0.65-0.574-1.132c-0.391-0.482-0.8-0.15-1.19-0.633   c-0.391-0.481-1.691,0.572-2.082,0.09c-0.39-0.481,0.638-1.313,0.247-1.794c-0.39-0.481,0.849-1.485,0.458-1.967   c-0.391-0.482-0.628-0.29-1.02-0.772c-0.391-0.482-0.447-0.436-0.839-0.918c-0.39-0.481-0.559-0.345-0.949-0.826   c-0.391-0.482-2.255,1.029-2.645,0.547c-0.392-0.482,1.677-2.159,1.286-2.642c-0.39-0.481-0.296-0.557-0.686-1.037   c-0.39-0.48-0.648-0.271-1.037-0.752c-0.39-0.48-0.987,0.004-1.377-0.477c-0.392-0.483-0.024-0.781-0.416-1.265   c-0.39-0.481-0.162-0.667-0.552-1.148c-0.392-0.482-1.546,0.453-1.937-0.029c-0.392-0.483,0.23-0.987-0.162-1.472   c-0.391-0.482,0.631-1.31,0.239-1.793c-0.392-0.483-0.744-0.198-1.137-0.682c-0.39-0.481-1.852,0.703-2.242,0.222   c-0.392-0.484-0.408-0.472-0.8-0.956c-0.393-0.484,0.743-1.405,0.351-1.89c-0.394-0.486-1.542,0.444-1.936-0.041   c-0.395-0.486,0.681-1.622,0.055-1.627c-0.619-0.004-0.217,0.592-0.606,1.072c-0.39,0.48,0.132,0.902-0.257,1.383   c-0.389,0.479-0.176,0.652-0.564,1.133c-0.389,0.479-2.046-0.864-2.434-0.385c-0.389,0.479-1.002-0.017-1.391,0.463   c-0.389,0.479,1.847,2.291,1.458,2.771c-0.389,0.48-1.159-0.145-1.548,0.336c-0.39,0.48-0.299,0.555-0.689,1.035   c-0.39,0.482,0.613,1.294,0.223,1.775c-0.391,0.482-0.419,0.459-0.81,0.941c-0.391,0.481-1.591-0.491-1.98-0.01   c-0.39,0.481-0.515,0.38-0.905,0.86c-0.389,0.48-0.387,0.482-0.776,0.963c-0.39,0.481-0.55,0.352-0.939,0.833   c-0.391,0.48,0.874,1.505,0.484,1.986c-0.391,0.481-2.584-1.296-2.975-0.813c-0.391,0.481,0.944,1.563,0.554,2.046   c-0.39,0.481-1.024-0.032-1.414,0.45c-0.391,0.481-0.333,0.527-0.723,1.009c-0.391,0.481-0.707,0.225-1.098,0.706   c-0.391,0.483-0.208,0.631-0.599,1.113c-0.391,0.482,0.063,0.85-0.328,1.331c-0.391,0.482-0.976,0.009-1.366,0.49   c-0.391,0.482,0.577,1.267,0.186,1.748c-0.391,0.482,0.105,0.885-0.285,1.367c-0.39,0.481-1.136-0.123-1.525,0.358   c-0.389,0.48-1.121-0.113-1.51,0.366c-0.39,0.481,1.555,2.058,1.165,2.538c-0.392,0.483-2.58-1.29-2.972-0.807   c-0.391,0.482,0.732,1.392,0.342,1.873c-0.391,0.483,0.514,1.216,0.123,1.698c-0.392,0.483-1.189-0.163-1.581,0.32   c-0.392,0.482-0.81,0.145-1.201,0.627c-0.392,0.483-0.455,0.433-0.847,0.916c-0.39,0.482,0.279,1.024-0.11,1.506   c-0.393,0.484-1.686-0.563-2.077-0.079c-0.394,0.484-0.17,0.666-0.563,1.15c-0.395,0.486-0.941,0.042-1.335,0.528   c-0.395,0.486-0.408,1.646-0.146,2.213c0.261,0.563,1.184-1.631,1.804-1.631c0.618,0,0.618,1.525,1.237,1.525   c0.619,0,0.619-1.587,1.237-1.587c0.62,0,0.62,2.216,1.241,2.216c0.619,0,0.619-2.16,1.238-2.16c0.621,0,0.621-0.304,1.241-0.304   c0.621,0,0.621,1.893,1.242,1.893c0.62,0,0.62,0.007,1.24,0.007c0.621,0,0.621,0.284,1.242,0.284c0.622,0,0.622,0.859,1.245,0.859   c0.01,0,0.016-0.008,0.025-0.009c0.4,0.544,0.859,1.115,0.646,1.379c-0.391,0.482-2.567-1.282-2.958-0.8   c-0.391,0.481,1.138,1.721,0.747,2.203c-0.391,0.481-1.094-0.088-1.484,0.394c-0.391,0.482,0.552,1.246,0.161,1.729   c-0.392,0.483,0.181,0.947-0.211,1.43c-0.392,0.483-0.686,0.245-1.077,0.729c-0.391,0.482-0.876,0.09-1.268,0.572   c-0.391,0.482-1.91-0.748-2.301-0.266c-0.392,0.483-0.697,0.235-1.088,0.719c-0.393,0.483,1.538,2.048,1.146,2.531   c-0.392,0.483-1.034-0.037-1.427,0.446c-0.391,0.482-0.877,0.089-1.269,0.572s1.67,2.153,1.278,2.637   c-0.393,0.484-2.444-1.179-2.836-0.695c-0.391,0.482-0.407,0.47-0.798,0.951c-0.39,0.481-0.684,0.244-1.073,0.726   c-0.391,0.481-0.646,0.274-1.037,0.757c-0.393,0.484,1.288,1.846,0.895,2.33c-0.392,0.483-0.123,0.701-0.515,1.185   c-0.392,0.483-2.237-1.012-2.629-0.528c-0.393,0.485,0.4,1.127,0.008,1.612c-0.393,0.484-0.443,0.443-0.836,0.928   c-0.393,0.484,0.168,0.938-0.225,1.423c-0.392,0.482-1.749-0.618-2.14-0.136c-0.393,0.485,1.804,2.267,1.41,2.752   c-0.394,0.486-1.943-0.77-2.338-0.283c-0.395,0.487-1.156-0.131-1.552,0.356c-0.395,0.487-0.701,1.827-0.454,2.404   c0.238,0.555,1.537-1.776,2.142-1.776c0.603,0,0.603,2.299,1.206,2.299c0.604,0,0.604,0.802,1.209,0.802   c0.601,0,0.601-0.818,1.202-0.818c0.605,0,0.605-2.639,1.208-2.639s0.604,2.675,1.206,2.675c0.602,0,0.602-2.028,1.205-2.028   c0.605,0,0.605,0.734,1.21,0.734c0.604,0,0.604-1.415,1.207-1.415c0.604,0,0.604,0.538,1.209,0.538   c0.605,0,0.605-0.339,1.211-0.339c0.605,0,0.605,1.118,1.209,1.118c0.605,0,0.605,0.797,1.211,0.797   c0.607,0,0.607-1.342,1.214-1.342c0.606,0-0.669,1.163-0.423,1.718c0.252,0.57,2.279,0.6,1.887,1.085   c-0.393,0.483-1.713-0.587-2.105-0.103c-0.393,0.483-0.422,0.46-0.814,0.943c-0.392,0.484,0.524,1.227,0.133,1.711   c-0.393,0.483-0.288,0.568-0.68,1.053c-0.394,0.485,0.018,0.818-0.376,1.304c-0.394,0.485-1.751-0.615-2.145-0.13   c-0.393,0.484,0.92,1.549,0.526,2.034c-0.393,0.483-1.27-0.227-1.662,0.257c-0.393,0.485-0.98,0.009-1.373,0.493   c-0.393,0.485,1.416,1.952,1.023,2.438c-0.394,0.485-3.125-1.727-3.519-1.24c-0.393,0.484,0.459,1.174,0.066,1.658   c-0.394,0.485-0.975,0.015-1.368,0.5c-0.394,0.485-0.481,0.415-0.875,0.9c-0.393,0.484,1.221,1.791,0.828,2.274   c-0.392,0.484-2.035-0.848-2.427-0.364c-0.393,0.483-0.571,0.339-0.964,0.822c-0.394,0.486,0.175,0.948-0.22,1.435   c-0.226,0.279,0.046,0.697,0.244,1.094c-0.45-0.265-0.963,0.032-1.386-0.474c-0.497-0.593-0.324-0.737-0.82-1.331   c-0.497-0.593,0.14-1.126-0.357-1.72c-0.497-0.594,0.166-1.149-0.332-1.743c-0.496-0.594-2.222,0.852-2.719,0.258   c-0.498-0.594-0.643-0.473-1.141-1.066c-0.496-0.592,0.121-1.108-0.375-1.7c-0.498-0.594-1.087-0.101-1.584-0.694   c-0.497-0.593,0.678-1.577,0.182-2.17c-0.497-0.593-0.509-0.583-1.006-1.176c-0.498-0.595-0.151-0.885-0.649-1.479   c-0.498-0.595-1.906,0.585-2.404-0.009c-0.498-0.595,0.274-1.241-0.224-1.836c-0.499-0.596,0.234-1.209-0.265-1.805   c-0.498-0.595-0.457-0.629-0.955-1.224c-0.498-0.596-1.349,0.117-1.848-0.479c-0.5-0.598-0.221-0.831-0.721-1.429   c-0.5-0.597-2.341-0.747-2.031-1.462c0.3-0.696,1.649,1.338,2.407,1.338c0.756,0,0.756-0.638,1.513-0.638   c0.757,0,0.757,0.4,1.515,0.4s0.758-0.172,1.517-0.172c0.757,0,0.757,0.141,1.515,0.141c0.759,0,0.759,0.709,1.518,0.709   c0.76,0,0.76-1.162,1.521-1.162c0.761,0,0.917,0.321,1.248-0.363c0.327-0.676-0.966,0.189-1.447-0.387   c-0.482-0.575-0.884-0.238-1.365-0.813c-0.481-0.575-0.205-0.808-0.687-1.383c-0.482-0.575,1.527-2.258,1.045-2.833   c-0.482-0.577-1.04-0.11-1.523-0.687c-0.483-0.577-1.529,0.299-2.013-0.278c-0.482-0.577-1.05-0.103-1.532-0.679   c-0.482-0.576,1.689-2.395,1.206-2.971c-0.483-0.576-0.622-0.46-1.105-1.036c-0.483-0.577-1.527,0.298-2.011-0.279   c-0.483-0.577-1.487,0.264-1.971-0.313c-0.482-0.577-0.612-0.469-1.096-1.045c-0.483-0.577,0.719-1.583,0.235-2.16   c-0.483-0.578,0.703-1.571,0.219-2.149c-0.483-0.577-2.914,1.459-3.397,0.882c-0.482-0.575-0.354-0.682-0.835-1.256   c-0.482-0.575,0.736-1.596,0.255-2.171c-0.484-0.577-1.021-0.128-1.505-0.707c-0.483-0.577,0.037-1.013-0.446-1.589   c-0.482-0.577,0.551-1.443,0.067-2.02c-0.484-0.578-1.268,0.078-1.752-0.501c-0.484-0.578-1.511,0.281-1.994-0.297   c-0.484-0.578,0.34-1.268-0.145-1.847c-0.485-0.579-1.21,0.028-1.695-0.552c-0.484-0.578-1.017-0.132-1.501-0.71   c-0.485-0.579,0.896-1.737,0.411-2.316c-0.486-0.581-1.275,0.08-1.762-0.501s0.309-2.384-0.449-2.388   c-0.75-0.005-1.461,0.55-1.942,1.126c-0.482,0.575,0.824,1.669,0.342,2.244c-0.481,0.575-0.679,0.409-1.16,0.984   c-0.482,0.576,0.245,1.186-0.236,1.761c-0.483,0.577-1.347-0.146-1.829,0.431c-0.483,0.577-1.688-0.432-2.172,0.146   c-0.482,0.576,1.455,2.199,0.972,2.775c-0.482,0.576-1.204-0.027-1.687,0.549c-0.482,0.576-1.21-0.033-1.692,0.543   c-0.483,0.577-0.335,0.701-0.818,1.278c-0.483,0.577,0.197,1.148-0.286,1.725c-0.482,0.576-1.639-0.392-2.122,0.186   c-0.482,0.577,0.76,1.617,0.276,2.194c-0.483,0.577-1.241-0.058-1.725,0.52c-0.483,0.577,1.252,2.03,0.769,2.607   c-0.481,0.575-1.495-0.274-1.975,0.301c-0.451,0.537-0.857,0.267-1.302,0.696c1.793,9.558,2.698,20.743,2.716,33.715   c0,6.119-0.203,12.684-0.601,19.514c-0.223,3.835-1.99,7.23-4.667,9.619c0.161,0.065,0.345,0.121,0.655,0.121   c0.769,0,0.769,0.074,1.537,0.074c0.769,0,0.769-1.472,1.537-1.472c0.768,0,0.768,2.055,1.537,2.055   c0.769,0,0.769,0.149,1.539,0.149c0.77,0,0.77-0.348,1.538-0.348c0.767,0,0.767-0.536,1.533-0.536c0.767,0,0.767-0.688,1.534-0.688   s0.768,0.258,1.536,0.258c0.629,0,0.75,0.062,1.19,0.085v23.186c-0.028,0.019-0.055,0.044-0.088,0.044   c-0.404,0-0.404,0.038-0.809,0.038s-0.404-2.074-0.808-2.074c-0.404,0-0.404-0.283-0.809-0.283c-0.405,0-0.405,2.688-0.81,2.688   c-0.404,0-0.404-3.573-0.81-3.573c-0.405,0-0.405,3.721-0.81,3.721c-0.404,0-0.404,0.093-0.809,0.093c-0.404,0-0.404-1.5-0.81-1.5   c-0.405,0-0.405-2.238-0.81-2.238c-0.404,0-0.404,2.608-0.809,2.608c-0.404,0-0.404-2.912-0.809-2.912   c-0.404,0-0.404,3.432-0.809,3.432s-0.404,0.118-0.809,0.118c-0.404,0-0.404,0.401-0.808,0.401c-0.404,0-0.404-0.122-0.808-0.122   c-0.404,0-0.404-2.803-0.809-2.803c-0.403,0-0.403,3.094-0.808,3.094s-0.404,0.08-0.809,0.08c-0.404,0-0.404-0.031-0.808-0.031   c-0.361,0-0.401-1.786-0.696-2.159v-10.797h-4.15v12.629c-0.402-0.004-0.403-1.033-0.806-1.033c-0.403,0-0.403-0.949-0.808-0.949   c-0.403,0-0.403-1.142-0.807-1.142c-0.404,0-0.404-0.383-0.808-0.383c-0.403,0-0.403,2.18-0.808,2.18   c-0.403,0-0.403,1.56-0.807,1.56c-0.404,0-0.404-2.186-0.808-2.186c-0.403,0-0.403,0.295-0.808,0.295   c-0.403,0-0.403,1.65-0.807,1.65c-0.404,0-0.404-3.734-0.808-3.734c-0.403,0-0.403,1.884-0.807,1.884   c-0.403,0-0.403,0.685-0.808,0.685c-0.404,0-0.404-2.128-0.808-2.128c-0.403,0-0.403,3.577-0.808,3.577   c-0.096,0-0.168-0.169-0.229-0.422v9.32h208.807v-6.319c0.544-0.087,0.993-0.187,0.993-0.353c0-0.422-2.659-0.422-2.659-0.843   c0-0.419-0.69-0.419-0.69-0.838c0-0.42,0.427-0.42,0.427-0.84c0-0.421,2.77-0.421,2.77-0.841c0-0.421-1.272-0.4-1.565-0.702   c-0.287-0.294-0.268-0.075-0.679-0.075c-0.412,0-0.412,1.382-0.823,1.382c-0.41,0-0.41-1.853-0.82-1.853   c-0.409,0-0.409,0.754-0.819,0.754c-0.408,0-0.408-1.139-0.815-1.139c-0.408,0-0.408,2.926-0.816,2.926s-0.408-0.894-0.816-0.894   c-0.409,0-0.409-1.924-0.818-1.924c-0.407,0-0.407,1.108-0.815,1.108s-0.408-2.188-0.815-2.188c-0.409,0-0.409,1.611-0.817,1.611   c-0.406,0-0.406-0.69-0.813-0.69c-0.406,0-0.406,2.961-0.813,2.961c-0.407,0-0.407-3.932-0.814-3.932   c-0.408,0-0.408,2.146-0.816,2.146c-0.406,0-0.406,0.612-0.814,0.612c-0.405,0-0.405,0.496-0.81,0.496   c-0.115,0-0.198-0.26-0.267-0.627v-11.16h-4.551v8.859c-0.026-0.003-0.041-0.014-0.071-0.014c-0.407,0-0.407,3.382-0.815,3.382   c-0.407,0-0.407-0.693-0.813-0.693c-0.406,0-0.406-2.618-0.813-2.618c-0.406,0-0.406,1.714-0.814,1.714   c-0.406,0-0.406-1.56-0.813-1.56c-0.407,0-0.407,1.409-0.814,1.409c-0.407,0-0.407,1.702-0.815,1.702   c-0.406,0-0.406-0.654-0.814-0.654c-0.407,0-0.407-0.743-0.813-0.743c-0.406,0-0.406-1.244-0.812-1.244   c-0.405,0-0.405,1.485-0.811,1.485c-0.008,0-0.011-0.002-0.019-0.002v-26.952c0.146-0.064,0.316-0.113,0.581-0.113   c0.77,0,0.77,1.184,1.539,1.184c0.771,0,0.771-0.58,1.54-0.58c0.772,0,0.772-0.614,1.543-0.614c0.771,0,0.771,0.884,1.543,0.884   c0.771,0,0.771-1.087,1.541-1.087c0.771,0,0.771,1.616,1.542,1.616c0.772,0,0.772-1.311,1.544-1.311   c0.771,0,0.771,1.387,1.542,1.387c0.772,0,0.772-0.487,1.544-0.487c0.772,0,0.772,1.275,1.544,1.275   c0.772,0,0.772-2.305,1.544-2.305c0.77,0,0.77,0.922,1.541,0.922c0.769,0,0.769-1.353,1.54-1.353c0.772,0,0.772,0.882,1.546,0.882   c0.771,0,0.771-0.188,1.543-0.188c0.772,0,0.772-0.6,1.545-0.6c0.773,0,0.773,1.448,1.546,1.448c0.773,0,0.773-0.981,1.545-0.981   c0.774,0,0.774,1.348,1.548,1.348c0.775,0,0.678,0.243,1.446,0.346c0.441,0.059,0.405-0.534,0.749-1.229   c0.334-0.677,1.21-0.812,0.717-1.383C295.868,153.783,294.796,154.709,294.303,154.139z M229.377,133.593   c0.745,0,0.745-0.198,1.49-0.198c0.744,0,0.744,0.968,1.488,0.968c0.745,0,0.745,1.228,1.49,1.228c0.746,0,0.746-1.204,1.491-1.204   s0.745-0.605,1.489-0.605c0.746,0,0.746,1.367,1.493,1.367c0.748,0,0.748-0.365,1.496-0.365c0.747,0,2.29-1.493,2.595-0.81   c0.307,0.689-1.932,0.768-2.425,1.339c-0.493,0.571-1.186-0.027-1.679,0.544c-0.493,0.57-0.211,0.814-0.703,1.385   c-0.493,0.57-0.071,0.935-0.564,1.507c-0.493,0.571-1.138,0.015-1.631,0.586c-0.038,0.044-0.041,0.104-0.054,0.158   c-0.14-0.141-0.268-0.271-0.354-0.379c-0.392-0.484-1.755,0.621-2.148,0.137c-0.393-0.483,1.68-2.162,1.287-2.646   c-0.392-0.483-0.831-0.128-1.223-0.611c-0.393-0.484-0.983-0.006-1.376-0.49c-0.393-0.485-0.689-0.245-1.082-0.73   c-0.394-0.485-1.404,0.334-1.798-0.151c-0.149-0.184-0.114-0.401-0.035-0.626C228.814,133.794,229,133.593,229.377,133.593z    M236.145,141.28c0.142,0.297,0.211,0.563,0.062,0.735c-0.212,0.245-0.661,0.099-1.142-0.098   C235.53,141.772,235.925,141.53,236.145,141.28z M195.683,139.208c0.615,0,0.615-0.112,1.23-0.112c0.616,0,0.616,0.984,1.233,0.984   c0.617,0,0.617-0.719,1.234-0.719c0.617,0,0.617,1.545,1.233,1.545c0.616,0,0.616,1.184,1.231,1.184   c0.615,0,0.615-0.591,1.231-0.591c0.615,0,0.615-2.681,1.231-2.681c0.616,0,0.616,1.226,1.232,1.226s0.616,0.657,1.233,0.657   s0.617-1.075,1.235-1.075c0.616,0,0.616,0.446,1.233,0.446c0.617,0,0.617,0.243,1.233,0.243c0.616,0,0.616,0.8,1.233,0.8   c0.617,0,0.617-0.827,1.235-0.827c0.617,0,0.617,1.841,1.234,1.841c0.617,0,0.617-1.981,1.234-1.981   c0.617,0,0.617,0.244,1.234,0.244c0.618,0,0.618-0.761,1.236-0.761c0.617,0,0.617,2.78,1.234,2.78c0.618,0,0.618-0.07,1.236-0.07   c0.616,0,0.616-2.412,1.231-2.412c0.618,0,0.618-0.677,1.236-0.677c0.617,0,0.617,0.961,1.234,0.961   c0.617,0,0.617,0.824,1.233,0.824c0.619,0,0.619,0.797,1.238,0.797c0.618,0,0.618-1.584,1.235-1.584   c0.619,0,0.619,1.696,1.237,1.696c0.62,0,0.62-0.177,1.239-0.177c0.619,0,0.619-0.895,1.237-0.895c0.619,0,0.619-0.173,1.238-0.173   c0.559,0,0.282,0.842,0.646,1.154c-0.12,0.591,0.773,1.467,0.339,1.97c-0.494,0.571-0.425,0.632-0.919,1.203   c-0.493,0.571-0.046,0.957-0.539,1.527c-0.493,0.571-0.719,0.376-1.211,0.946c-0.495,0.573-1.034,0.107-1.528,0.68   c-0.494,0.572-1.107,0.042-1.602,0.614c-0.494,0.572,0.535,1.46,0.041,2.032c-0.495,0.573-1.239-0.07-1.734,0.503   c-0.494,0.572,0.763,1.657,0.268,2.229c-0.495,0.573-0.473,0.593-0.968,1.166c-0.497,0.575-1.635-0.408-2.131,0.167   c-0.497,0.574-0.349,0.22-0.02,0.904c0.333,0.696-0.036,0.968,0.734,0.968c0.771,0,0.771-0.757,1.54-0.757s0.77-0.638,1.54-0.638   c0.77,0,0.77,2.175,1.539,2.175c0.77,0,0.77-2.748,1.54-2.748c0.77,0,0.77,1.893,1.539,1.893s0.77-1.642,1.54-1.642   c0.77,0,0.77-0.041,1.542-0.041c0.771,0,0.771,1.475,1.541,1.475c0.77,0,0.77-1.702,1.54-1.702c0.77,0,0.77,0.917,1.54,0.917   c0.77,0,0.77-0.535,1.54-0.535c0.771,0,0.771-0.425,1.541-0.425c0.771,0,0.771,2.481,1.542,2.481c0.771,0,0.771-1.268,1.541-1.268   c0.768,0,0.768,1.692,1.535,1.692c0.769,0,0.769-0.857,1.537-0.857c0.77,0,0.77-0.795,1.54-0.795c0.771,0,0.771,1.316,1.543,1.316   c0.77,0,0.77,0.324,1.539,0.324c0.77,0,0.77-0.962,1.539-0.962c0.313,0,0.497-0.191,0.659-0.417v25.052   c-0.032,0.019-0.064,0.037-0.103,0.037c-0.405,0-0.405,1.33-0.809,1.33c-0.404,0-0.404-0.634-0.809-0.634s-0.404-1.614-0.809-1.614   c-0.404,0-0.404,1.355-0.809,1.355s-0.404,1.808-0.808,1.808c-0.403,0-0.403-3.051-0.808-3.051c-0.404,0-0.404-0.769-0.809-0.769   s-0.404,0.864-0.809,0.864c-0.404,0-0.404,0.286-0.809,0.286c-0.405,0-0.405,0.327-0.811,0.327c-0.405,0-0.405-0.6-0.811-0.6   c-0.406,0-0.406,1.727-0.812,1.727c-0.406,0-0.406,0.774-0.813,0.774c-0.406,0-0.406-2.27-0.813-2.27   c-0.406,0-0.406,2.597-0.813,2.597c-0.405,0-0.405-1.693-0.812-1.693c-0.406,0-0.406-2.258-0.811-2.258   c-0.405,0-0.405,0.323-0.812,0.323c-0.405,0-0.405,3.189-0.811,3.189c-0.406,0-0.406-3.257-0.812-3.257   c-0.405,0-0.405,0.53-0.81,0.53c-0.405,0-0.405,2.46-0.812,2.46c-0.406,0-0.406-0.861-0.812-0.861s-0.405-0.847-0.811-0.847   c-0.406,0-0.406,0.499-0.813,0.499c-0.406,0-0.406,2.004-0.813,2.004c-0.406,0-0.406-4.006-0.813-4.006   c-0.406,0-0.406,1.202-0.813,1.202c-0.406,0-0.406,1.643-0.812,1.643c-0.405,0-0.405-1.789-0.811-1.789   c-0.405,0-0.405,0.353-0.811,0.353c-0.405,0-0.405-0.818-0.811-0.818c-0.405,0-0.405-0.578-0.811-0.578s-0.405,2.69-0.811,2.69   c-0.405,0-0.405,1.126-0.811,1.126c-0.172,0-0.269-0.284-0.357-0.608v-17.139h-6.299v17.5c-0.246-0.898-0.303-3.608-0.642-3.608   c-0.406,0-0.406,4.084-0.813,4.084c-0.405,0-0.405-0.085-0.812-0.085c-0.406,0-0.406-3.614-0.812-3.614   c-0.405,0-0.405,2.812-0.811,2.812c-0.405,0-0.405,0.499-0.812,0.499c-0.404,0-0.404-2.002-0.81-2.002s-0.405,0.147-0.811,0.147   c-0.405,0-0.405,1.116-0.809,1.116s-0.404-1.821-0.81-1.821c-0.404,0-0.404,2.976-0.809,2.976c-0.405,0-0.405-3.648-0.81-3.648   s-0.404,3.611-0.809,3.611c-0.404,0-0.404-0.461-0.81-0.461c-0.404,0-0.404,0.019-0.809,0.019c-0.404,0-0.404-3.095-0.809-3.095   c-0.405,0-0.405,1.162-0.81,1.162c-0.404,0-0.404,1.692-0.809,1.692s-0.404-0.942-0.81-0.942c-0.405,0-0.405-2.231-0.809-2.231   c-0.404,0-0.404,0.306-0.81,0.306c-0.405,0-0.405,0.124-0.81,0.124c-0.404,0-0.404-0.409-0.81-0.409   c-0.405,0-0.405,0.39-0.811,0.39c-0.405,0-0.405,0.8-0.811,0.8c-0.405,0-0.405,0.131-0.811,0.131c-0.405,0-0.405-0.302-0.811-0.302   c-0.406,0-0.406,1.798-0.812,1.798c-0.405,0-0.405-3.09-0.812-3.09c-0.406,0-0.406,3.767-0.812,3.767   c-0.405,0-0.405-2.627-0.81-2.627c-0.06,0-0.097-0.008-0.142-0.014v-41.149C195.424,139.315,195.535,139.208,195.683,139.208z    M172.831,83.676c0.078-0.229,0.145-0.347,0.246-0.136C173.184,83.764,173.051,83.745,172.831,83.676z M149.844,133.862   c0.596,0,0.712,1.123,1.126,1.548c-0.018,0.028-0.028,0.057-0.052,0.086c-0.395,0.486-1.185-0.154-1.579,0.333   c-0.102,0.126-0.257,0.153-0.437,0.136C149.186,135.146,149.345,133.862,149.844,133.862z M125.989,159.834   c0.769,0,0.769-0.609,1.537-0.609c0.768,0,0.768-1.291,1.536-1.291c0.77,0,0.77,0.768,1.538,0.768c0.77,0,0.77,1.137,1.54,1.137   c0.77,0,0.77,0.455,1.539,0.455c0.769,0,0.769-2.581,1.538-2.581c0.769,0,0.769,1.929,1.539,1.929c0.771,0,0.771,1.173,1.541,1.173   c0.77,0,0.77-2.621,1.539-2.621c0.77,0,0.77,1.237,1.541,1.237c0.77,0,0.77,0.857,1.54,0.857c0.771,0,0.771-0.089,1.542-0.089   c0.769,0,0.769-1.293,1.537-1.293c0.768,0,0.768-0.288,1.538-0.288c0.771,0,0.771,1.281,1.542,1.281   c0.771,0,0.771,0.194,1.54,0.194c0.772,0,0.772,0.745,1.542,0.745c0.772,0,0.772-2.824,1.544-2.824   c0.771,0,0.771,1.697,1.541,1.697c0.773,0,0.773-0.927,1.546-0.927c0.773,0,0.78,0.411,1.538,0.564   c0.633,0.128,0.767,0.424,1.117-0.267c0.34-0.668,1.142-1.343,0.66-1.918c-0.482-0.575-1.736,0.475-2.218-0.101   c-0.483-0.576,0.665-1.538,0.183-2.114c-0.482-0.576-2.199,0.862-2.682,0.286c-0.483-0.576,0.924-1.754,0.442-2.329   c-0.482-0.576-2.161,0.829-2.644,0.253c-0.482-0.577,0.141-1.099-0.343-1.675c-0.482-0.576-1.075-0.079-1.558-0.655   c-0.48-0.574-0.18-0.826-0.66-1.4c-0.48-0.574-0.703-0.388-1.185-0.962c-0.483-0.577,0.263-1.202-0.221-1.779   c-0.482-0.576-0.653-0.432-1.136-1.008c-0.482-0.576-0.477-0.581-0.959-1.156c-0.483-0.578,0.35-1.275-0.135-1.852   c-0.482-0.577-0.882-0.243-1.365-0.82c-0.328-0.393-0.173-0.741-0.188-1.104c0.218,0.472,0.469,0.892,0.993,0.892   c0.4,0,0.541-1.228,0.759-2.089c-0.918-0.457-2.114-1.241-2.372-0.924c-0.324,0.399,0.046,1.013,0.333,1.538   c-0.551-0.396-1.97,0.74-2.432,0.188c-0.483-0.577,1.269-2.044,0.785-2.622c-0.464-0.554-0.292-0.746-0.702-1.269   c0.465-0.219,0.561-0.952,1.183-0.952c0.732,0,0.732-2.049,1.465-2.049c0.73,0,0.73,1.759,1.462,1.759   c0.303,0,0.479,0.242,0.635,0.525c-0.061,0.023-0.118,0.053-0.162,0.107c-0.395,0.487-0.141,0.693-0.535,1.181   c-0.396,0.488,1.786,2.256,1.391,2.744c-0.019,0.024-0.048,0.037-0.078,0.049c0.204,1.016,0.349,2.365,0.733,2.365   c0.616,0,0.616-3.237,1.232-3.237c0.615,0,0.615,2.791,1.231,2.791c0.616,0,0.616-0.958,1.232-0.958s0.615,0.045,1.23,0.045   c0.615,0,0.615,0.292,1.23,0.292c0.615,0,0.615-1.761,1.23-1.761c0.615,0,0.615,1.497,1.23,1.497c0.615,0,0.615-1.346,1.23-1.346   c0.615,0,0.615-0.057,1.23-0.057c0.615,0,0.615,1.858,1.23,1.858c0.616,0,0.616-2.359,1.231-2.359c0.616,0,0.616,3.439,1.232,3.439   c0.616,0,0.616-2.352,1.232-2.352c0.617,0,0.617,0.271,1.233,0.271c0.616,0,0.616,2.011,1.232,2.011s0.616-0.689,1.232-0.689   c0.615,0,0.615-2.303,1.23-2.303c0.615,0,0.615,1.945,1.232,1.945c0.616,0,0.616-0.25,1.231-0.25c0.615,0,0.615,0.703,1.23,0.703   c0.616,0,0.616-1.226,1.232-1.226c0.616,0,0.616-0.918,1.232-0.918c0.617,0,0.617-0.916,1.233-0.916   c0.616,0,0.616,0.629,1.233,0.629c0.615,0,0.615,0.373,1.232,0.373c0.616,0,0.616,1.551,1.232,1.551s0.616-0.165,1.231-0.165   c0.615,0,0.615-1.35,1.232-1.35c0.616,0,0.616-0.61,1.232-0.61c0.208,0,0.345,0.357,0.46,0.825v42.166   c-0.034,0.043-0.07,0.079-0.112,0.079c-0.403,0-0.403-0.073-0.808-0.073c-0.403,0-0.403,0.882-0.807,0.882   c-0.404,0-0.404-3.205-0.808-3.205c-0.403,0-0.403,0.352-0.807,0.352c-0.403,0-0.403,1.428-0.807,1.428   c-0.403,0-0.403-1.2-0.808-1.2c-0.403,0-0.403,2.21-0.807,2.21c-0.404,0-0.404,0.874-0.808,0.874c-0.403,0-0.403-2.324-0.807-2.324   c-0.403,0-0.403-0.775-0.808-0.775c-0.404,0-0.404,0.557-0.808,0.557c-0.355,0-0.398,0.726-0.679,0.9v-21.824h-4.15v23.492   c-0.007,0.001-0.012,0.013-0.019,0.013c-0.404,0-0.404,0.124-0.809,0.124c-0.404,0-0.404-0.746-0.809-0.746   c-0.405,0-0.405-1.615-0.81-1.615s-0.404-1.098-0.809-1.098c-0.405,0-0.405,3.479-0.811,3.479c-0.404,0-0.404-2.068-0.81-2.068   c-0.405,0-0.405,1.142-0.811,1.142c-0.405,0-0.405-1.012-0.811-1.012c-0.405,0-0.405-1.943-0.811-1.943   c-0.405,0-0.405,2.412-0.811,2.412c-0.404,0-0.404-0.427-0.81-0.427s-0.405-0.866-0.81-0.866s-0.404,0.57-0.809,0.57   c-0.404,0-0.404-1.035-0.809-1.035s-0.404,2.793-0.809,2.793s-0.404-2.746-0.809-2.746c-0.403,0-0.403,1.544-0.808,1.544   c-0.404,0-0.404,0.225-0.808,0.225c-0.403,0-0.403-1.869-0.807-1.869c-0.403,0-0.403,2.342-0.808,2.342   c-0.403,0-0.403,0.57-0.807,0.57c-0.402,0-0.402-3.631-0.806-3.631c-0.403,0-0.403,3.853-0.807,3.853   c-0.403,0-0.403-2.968-0.806-2.968c-0.402,0-0.402,2.891-0.806,2.891c-0.403,0-0.403-1.957-0.806-1.957   c-0.402,0-0.402,0.444-0.806,0.444c-0.402,0-0.402-2.36-0.805-2.36c-0.402,0-0.402,1.874-0.805,1.874   c-0.402,0-0.402,1.121-0.805,1.121c-0.402,0-0.402,1.027-0.805,1.027c-0.046,0-0.085-0.031-0.122-0.075v-12.833h-4.15v10.787   c-0.18,0.475-0.259,1.363-0.554,1.363c-0.401,0-0.401-2.609-0.804-2.609c-0.402,0-0.402,0.476-0.805,0.476   c-0.402,0-0.402,2.139-0.804,2.139c-0.401,0-0.401,0.821-0.804,0.821c-0.402,0-0.402-1.561-0.805-1.561   c-0.402,0-0.402-2.629-0.804-2.629c-0.401,0-0.401,4.121-0.804,4.121c-0.402,0-0.402-0.516-0.804-0.516   c-0.402,0-0.402-2.208-0.805-2.208c-0.401,0-0.401-0.979-0.804-0.979c-0.402,0-0.402-0.169-0.804-0.169   c-0.402,0-0.402,0.181-0.805,0.181c-0.401,0-0.401,0.171-0.804,0.171c-0.402,0-0.402,1.152-0.805,1.152   c-0.402,0-0.402-0.664-0.805-0.664c-0.402,0-0.402,3.13-0.804,3.13c-0.402,0-0.402-4.085-0.805-4.085   c-0.402,0-0.402,2.524-0.805,2.524c-0.403,0-0.403-0.802-0.806-0.802c-0.402,0-0.402,1.447-0.805,1.447   c-0.196,0-0.297-0.693-0.395-1.405v-21.626C125.26,159.741,125.401,159.834,125.989,159.834z"/><path d="M230.679,112.472c0.253-0.568,0.425-1.354,0.033-1.837c-0.226-0.278-0.883,0.058-1.476,0.302c0.021,0,0.038,0,0.061,0   C229.904,110.936,230.432,113.026,230.679,112.472z"/><path d="M229.236,110.936c-0.5-0.002-0.568-0.022-1.036-0.025c0.008,0.045,0.004,0.095,0.033,0.131   C228.399,111.247,228.801,111.115,229.236,110.936z"/><path d="M148.163,139.825c-0.123-0.611-0.268-1.102-0.499-1.102c-0.216,0-0.355,0.36-0.473,0.825   C147.617,139.761,147.98,139.899,148.163,139.825z"/><path d="M77.057,137.983v-18.939V85.927c0.59,1.217,1.19,2.611,1.779,4.238c2.818,7.812,5.191,20.631,5.182,40.639   c0,5.514-0.178,11.572-0.566,18.223c-0.258,4.412,3.109,8.195,7.522,8.453c0.158,0.008,0.316,0.014,0.473,0.014   c4.203,0,7.73-3.283,7.979-7.533c0.404-6.934,0.594-13.301,0.594-19.156c-0.041-30.182-4.863-46.887-11.436-56.932   c-3.285-4.986-7.127-8.184-10.68-9.955c-3.549-1.789-6.66-2.143-8.436-2.137c-0.637,0-1.115,0.041-1.414,0.078   c-0.008,0.002-0.014,0.002-0.02,0.004h-3.407l-2.452,19.172l-9.75-11.75l6.698-7.422H40.894l6.698,7.422l-9.75,11.75L35.39,61.862   h-3.411c-0.004-0.002-0.01-0.002-0.016-0.004c-0.299-0.035-0.777-0.08-1.414-0.08c-1.775-0.004-4.889,0.35-8.438,2.141   c-5.377,2.664-11.176,8.5-15.234,18.838C2.77,93.136,0.012,108.143,0,130.804c0,5.854,0.188,12.223,0.596,19.158   c0.248,4.25,3.773,7.531,7.977,7.531c0.156,0,0.316-0.004,0.476-0.014c4.41-0.26,7.777-4.045,7.516-8.455   C16.176,142.374,16,136.315,16,130.804c-0.033-24.219,3.496-37.82,6.965-44.92v33.16v18.939v98c0,6.83,5.537,12.363,12.363,12.363   c6.828,0,12.365-5.533,12.365-12.363v-90.271h4.635v90.271c0,6.83,5.537,12.363,12.361,12.363c6.83,0,12.367-5.533,12.367-12.363   V137.983z"/><path d="M53.68,55.86c10.68-1.753,18.83-11.021,18.83-22.197c0-1.096-0.082-2.171-0.233-3.225H27.743   c-0.151,1.054-0.233,2.129-0.233,3.225c0,11.176,8.15,20.444,18.83,22.197c1.195,0.196,2.42,0.303,3.67,0.303   S52.484,56.057,53.68,55.86z"/><path d="M26.477,22.403c-1.666,0-3.016,1.351-3.016,3.018c0,1.668,1.35,3.017,3.016,3.017h0.402h46.262h0.4   c1.668,0,3.018-1.35,3.018-3.017c0-1.666-1.35-3.018-3.018-3.018h-0.416c-0.017-0.674-0.061-1.342-0.134-2   C72.223,13.551,68.463,7.604,63.045,3.9v1.847c0,1.318-1.068,2.389-2.387,2.389c-1.318,0-2.389-1.07-2.389-2.389V1.402   C56.413,0.692,54.445,0.21,52.394,0v5.747c0,1.318-1.066,2.389-2.385,2.389c-1.322,0-2.389-1.07-2.389-2.389V0   c-2.05,0.211-4.018,0.693-5.873,1.403v4.344c0,1.318-1.068,2.389-2.389,2.389c-1.318,0-2.387-1.07-2.387-2.389V3.902   c-5.417,3.703-9.176,9.649-9.944,16.501c-0.073,0.658-0.117,1.326-0.134,2H26.477z"/></g><text x="0" y="263.347" fill="#000000" font-size="5px" font-weight="bold" font-family="'Helvetica Neue', Helvetica, Arial-Unicode, Arial, Sans-serif">Created by Gan Khoon Lay</text><text x="0" y="268.347" fill="#000000" font-size="5px" font-weight="bold" font-family="'Helvetica Neue', Helvetica, Arial-Unicode, Arial, Sans-serif">from the Noun Project</text></svg>