<svg xmlns="http://www.w3.org/2000/svg" data-name="Layer 1" viewBox="0 0 100 125" x="0px" y="0px"><title>revisi travel</title><path d="M93.92,71.58H93V22.41a1,1,0,0,0-1-1H83.59l-.15,0-.16,0,0,0-.14.09-.11.07L50,51.89,17,21.68a1,1,0,0,0-.12-.07l-.13-.08-.05,0-.17,0-.14,0H8a1,1,0,0,0-1,1V71.58H6.08a1,1,0,0,0-1,1v5a1,1,0,0,0,1,1H18.26a1,1,0,0,0,1-1v-5a1,1,0,0,0-1-1h-.92V61.78H82.66v9.79h-.92a1,1,0,0,0-1,1v5a1,1,0,0,0,1,1H93.92a1,1,0,0,0,1-1v-5A1,1,0,0,0,93.92,71.58ZM9,23.41h6.35V53.23h0v7.54h0V71.58H9Zm8.26,53.17H7.08v-3H17.26ZM84.66,23.41H91V71.58H84.66ZM63.42,54.25v5.54H55.81V54.25Zm2,0H73v5.54H65.42Zm9.62,0h7.62v5.54H75Zm7.62-2H75.87l6.79-22.93Zm-8.88,0H66.9L80.47,29.67Zm5.47-24.44L64.57,52.25h-12ZM53.81,54.25v5.54H46.19V54.25Zm-19.23,0v5.54H27V54.25Zm2,0h7.62v5.54H36.58Zm10.85-2H36.21L21.11,28.13Zm-13.58,0H26.35l-6.91-23Zm-16.5-23,6.92,23H17.35Zm0,25H25v5.54H17.35ZM92.92,76.59H82.74v-3H92.92Z"/><text x="0" y="115" fill="#000000" font-size="5px" font-weight="bold" font-family="'Helvetica Neue', Helvetica, Arial-Unicode, Arial, Sans-serif">Created by Edwin Prayogi M</text><text x="0" y="120" fill="#000000" font-size="5px" font-weight="bold" font-family="'Helvetica Neue', Helvetica, Arial-Unicode, Arial, Sans-serif">from the Noun Project</text></svg>