<svg xmlns="http://www.w3.org/2000/svg" xmlns:xlink="http://www.w3.org/1999/xlink" version="1.1" x="0px" y="0px" viewBox="0 0 100 125" style="enable-background:new 0 0 100 100;" xml:space="preserve"><g><path d="M48.2,53.8c2.3,5.6,7.6,11.3,10.6,13.6c1.1-0.7,2.4-2,3.1-3.2c2.8-4.3,2.8-10.8-1.5-14.2C49.5,41.7,48.7,29,48.3,26.3   c-0.1-0.3-0.4-0.5-0.7-0.3c-2.2,1.7-11.6,14.6-12.5,27.5c-0.7,11.6,8.7,18.7,16.7,17.1c0.2,0,6.3,2.9,8.3,3.9   c0.4,0.2,0.8,0.1,1.1-0.1l0.6-0.5c0,0-4.4-3.2-6-4.9c-2.5-2.6-6.3-8.9-7.9-15.1C47.9,53.7,48.1,53.6,48.2,53.8z"/><path d="M50,10.1c3.8,0,7.7,0.6,11.4,1.7L58.1,15c-1.2,1.2-0.3,3.1,1.3,3.1h11.1c1,0,1.8-0.8,1.8-1.8V5.2c0-1.6-2-2.5-3.1-1.3   l-4.3,4.3C49.3,2.6,31.2,6,18.7,18.5C6.2,31.1,2.8,49.4,8.5,65.1c0.3,0.9,1.4,1.1,2.1,0.5l1.5-1.5c0.3-0.3,0.5-0.9,0.3-1.3   c-4.8-13.9-1.6-30,9.4-41.1C29.7,13.9,39.8,10.1,50,10.1z"/><path d="M91.5,34.4c-0.3-0.9-1.4-1.1-2.1-0.5l-1.5,1.5c-0.3,0.3-0.5,0.9-0.3,1.3c4.8,13.9,1.6,30-9.5,41.1   C70.6,85.4,60.6,89.5,50,89.5c-3.5,0-7-0.5-10.3-1.4l3.2-3.2c1.2-1.2,0.3-3.1-1.3-3.1H30.4c-1,0-1.8,0.8-1.8,1.8v11.1   c0,1.6,2,2.5,3.1,1.3l4.3-4.3c9.4,3.1,20,3,30.4-0.7c0,0,0.1,0,0.1,0C85,82.9,94.2,66.3,94.2,49.8C94.2,44.6,93.3,39.4,91.5,34.4z"/></g><text x="0" y="115" fill="#000000" font-size="5px" font-weight="bold" font-family="'Helvetica Neue', Helvetica, Arial-Unicode, Arial, Sans-serif">Created by Adrien Coquet</text><text x="0" y="120" fill="#000000" font-size="5px" font-weight="bold" font-family="'Helvetica Neue', Helvetica, Arial-Unicode, Arial, Sans-serif">from the Noun Project</text></svg>