<svg xmlns="http://www.w3.org/2000/svg" xmlns:xlink="http://www.w3.org/1999/xlink" version="1.1" x="0px" y="0px" viewBox="0 0 257.797 296.48" style="enable-background:new 0 0 257.797 237.184;" xml:space="preserve"><g><path d="M181.072,77.373V61.655H94.97c2.587,4.458,4.707,9.688,6.377,15.718H181.072z M166.008,66.069h9.848v6.818h-9.848V66.069z    M150.732,66.069h9.846v6.818h-9.846V66.069z M145.303,66.069v6.818h-9.846v-6.818H145.303z"/><path d="M106.018,119.633c0,2.62-0.045,5.339-0.119,8.112c8.828,0.64,15.797,7.988,15.797,16.981c0,0.527-0.032,1.046-0.079,1.561   h59.456V79.393H101.88C104.628,90.255,105.997,103.585,106.018,119.633z"/><path d="M219.789,127.682c9.412,0,17.043,7.63,17.043,17.044c0,0.527-0.032,1.046-0.079,1.561h10.558v-2.318h1.703   c0.836,0,1.516-0.679,1.516-1.516v-7.574c0-0.837-0.68-1.516-1.516-1.516h-1.703v-18.179l-14.771-6.313L211.67,85.39h-27.23v60.897   h18.384c-0.047-0.515-0.079-1.034-0.079-1.561C202.744,135.312,210.377,127.682,219.789,127.682z M208.896,91.45l14.02,16.232   h-32.418V91.45H208.896z"/><path d="M104.652,158.015c7.33,0,13.291-5.961,13.291-13.289c0-6.95-5.363-12.661-12.168-13.234   c-0.07,1.851-0.155,3.725-0.256,5.625c3.817,0.433,6.795,3.679,6.795,7.609c0,4.225-3.438,7.66-7.662,7.66   c-2.17,0-4.129-0.912-5.525-2.367c-1.63,1.075-3.496,1.808-5.497,2.123C96.02,155.682,100.067,158.015,104.652,158.015z"/><path d="M233.078,144.726c0-7.329-5.961-13.291-13.289-13.291c-7.33,0-13.291,5.962-13.291,13.291   c0,7.328,5.961,13.289,13.291,13.289C227.117,158.015,233.078,152.054,233.078,144.726z M212.127,144.726   c0-4.224,3.438-7.662,7.662-7.662c4.225,0,7.662,3.439,7.662,7.662c0,4.225-3.438,7.66-7.662,7.66   C215.564,152.386,212.127,148.95,212.127,144.726z"/><rect x="189.174" y="74.659" width="15.717" height="7.953"/><polygon points="228.37,159.434 211.208,159.434 113.233,159.434 96.071,159.434 83.057,159.434 83.057,162.985 257.797,162.985    257.797,159.434  "/><path d="M52.328,222.31v2.511c0,6.83,5.537,12.363,12.363,12.363c6.828,0,12.365-5.533,12.365-12.363v-2.511H52.328z"/><path d="M22.965,222.31v2.511c0,6.83,5.537,12.363,12.363,12.363c6.828,0,12.365-5.533,12.365-12.363v-2.511H22.965z"/><path d="M0.596,138.799c0.25,4.25,3.775,7.531,7.978,7.531c0.158,0,0.316-0.004,0.477-0.014c4.41-0.26,7.775-4.045,7.518-8.456   C16.178,131.211,16,125.154,16,119.64c-0.033-24.217,3.497-37.822,6.965-44.921v33.163v18.939v92.573h24.728v-84.845h4.635v84.845   h24.729V126.82v-18.939V74.766c0.592,1.215,1.191,2.61,1.781,4.237c2.818,7.812,5.188,20.63,5.18,40.638   c0,5.514-0.176,11.573-0.564,18.223c-0.26,4.412,3.109,8.195,7.521,8.452c0.158,0.009,0.316,0.014,0.475,0.014   c4.203,0,7.729-3.282,7.977-7.534c0.404-6.932,0.592-13.299,0.592-19.154c-0.039-30.184-4.861-46.886-11.435-56.931   c-3.283-4.987-7.127-8.185-10.678-9.956c-3.549-1.789-6.662-2.145-8.436-2.139c-0.637,0-1.115,0.043-1.416,0.08   c-0.006,0.001-0.012,0.003-0.018,0.004h-10.15c-1.946,4.609-7.875,9.152-7.875,9.152s-5.929-4.543-7.875-9.152H31.987   c-0.008-0.001-0.015-0.003-0.022-0.004h-0.002c-0.299-0.036-0.777-0.079-1.412-0.079c-1.775-0.006-4.889,0.349-8.437,2.137   c-1.626,0.806-3.29,1.908-4.934,3.33c-3.792,3.282-7.471,8.298-10.303,15.511c-2.549,6.443-4.576,14.674-5.752,25.408   C0.406,103.559,0.005,111.046,0,119.64C0.002,125.496,0.189,131.864,0.596,138.799z M54.844,75.185h17.332v4H54.844V75.185z    M45.176,79.185H27.844v-4h17.332V79.185z"/><circle cx="50.01" cy="22.5" r="22.5"/></g><text x="0" y="252.184" fill="#000000" font-size="5px" font-weight="bold" font-family="'Helvetica Neue', Helvetica, Arial-Unicode, Arial, Sans-serif">Created by Gan Khoon Lay</text><text x="0" y="257.18399999999997" fill="#000000" font-size="5px" font-weight="bold" font-family="'Helvetica Neue', Helvetica, Arial-Unicode, Arial, Sans-serif">from the Noun Project</text></svg>