<svg xmlns="http://www.w3.org/2000/svg" xmlns:xlink="http://www.w3.org/1999/xlink" version="1.1" x="0px" y="0px" viewBox="0 0 64 80" style="enable-background:new 0 0 64 64;" xml:space="preserve"><g><path d="M7,18h17c3.859,0,7-3.141,7-7s-3.141-7-7-7c-0.829,0-1.655,0.149-2.431,0.437C20.084,2.296,17.644,1,15,1   c-3.292,0-6.224,2.028-7.424,5.033C7.38,6.011,7.188,6,7,6c-3.309,0-6,2.691-6,6S3.691,18,7,18z M7,8   c0.301,0,0.618,0.046,0.998,0.144l0.958,0.248l0.258-0.955C9.918,4.824,12.298,3,15,3c2.218,0,4.247,1.218,5.294,3.178l0.471,0.883   l0.883-0.472C22.378,6.198,23.17,6,24,6c2.757,0,5,2.243,5,5s-2.243,5-5,5H7c-2.206,0-4-1.794-4-4S4.794,8,7,8z"/><path d="M57.618,26h5l-5.5-11h3.5L53-0.236L45.382,15h3.5l-5.5,11h5l-5,10h6.541l-0.757,10.229L32,24.382L9.287,53.289   l-3.854,3.083l-0.471-1.647l-1.924,0.549L4.674,61H2v2h7h46h7v-2h-2.674l1.636-5.726l-1.924-0.549l-0.471,1.647l-0.583-0.466   l0.011-0.001L56.1,36h6.519L57.618,26z M31,35.862V61h-5.746L31,35.862z M23.54,59.527c-0.826-2.175-2.699-3.84-5.007-4.358   L29.59,33.055L23.54,59.527z M6.755,61l-0.726-2.542L9,56.081V61H6.755z M11,54.346l15.7-19.982L15.382,57H17   c2.414,0,4.434,1.721,4.899,4H11V54.346z M33,61V28.891l20,25.455V61H33z M57.245,61H55v-4.919l2.972,2.377L57.245,61z    M55.822,54.177l-1.109-0.887l-3.715-4.728L52.077,34h-5.459l5-10h-5l5.5-11h-3.5L53,4.236L57.382,13h-3.5l5.5,11h-5l5,10H53.9   L55.822,54.177z"/></g><text x="0" y="79" fill="#000000" font-size="5px" font-weight="bold" font-family="'Helvetica Neue', Helvetica, Arial-Unicode, Arial, Sans-serif">Created by Eucalyp</text><text x="0" y="84" fill="#000000" font-size="5px" font-weight="bold" font-family="'Helvetica Neue', Helvetica, Arial-Unicode, Arial, Sans-serif">from the Noun Project</text></svg>